# xmcd
#
# Track frame offsets:
#	151
#	12452
#	21963
#	34852
#	47857
#	59862
#	72765
#	86330
#	96967
#	110022
#	121277
#	132724
#	145057
#	157500
#	168709
#
# Disc length: 2413 seconds
#
# Revision: 0
# Processed by: cddbd v1.5PL3 Copyright (c) Steve Scherf et al.
# Submitted via: dBpowerAMP V4.0
#
DISCID=d5096b0f
DTITLE=Bob Wills and His Texas Playboys - Plain Country Boys
DYEAR=1900
DGENRE=Western Swing
TTITLE0=Just a Plain Old Country Boy
TTITLE1=Sweet Jennie Lee
TTITLE2=Rock-a-Bye Baby Blues
TTITLE3=Milk Cow Blues
TTITLE4=Cotton Eyed Joe
TTITLE5=Corrina Corrina
TTITLE6=Red Hot Gal of Mine
TTITLE7=Blue Yodel #1
TTITLE8=Dusty Skies
TTITLE9=The Waltz You Saved for Me
TTITLE10=San Antonio Rose
TTITLE11=Steel Guitar Rag
TTITLE12=Ain't Got Nobody
TTITLE13=My Life's Been a Pleasure
TTITLE14=Playboy Stomp
EXTD=
EXTT0=
EXTT1=
EXTT2=
EXTT3=
EXTT4=
EXTT5=
EXTT6=
EXTT7=
EXTT8=
EXTT9=
EXTT10=
EXTT11=
EXTT12=
EXTT13=
EXTT14=
PLAYORDER=
